<?xml version="1.0" encoding="utf-8"?>
<!-- Generator: Adobe Illustrator 15.0.0, SVG Export Plug-In . SVG Version: 6.00 Build 0)  -->
<!DOCTYPE svg PUBLIC "-//W3C//DTD SVG 1.1//EN" "http://www.w3.org/Graphics/SVG/1.1/DTD/svg11.dtd">
<svg version="1.1" id="Layer_1" xmlns="http://www.w3.org/2000/svg" xmlns:xlink="http://www.w3.org/1999/xlink" x="0px" y="0px"
	 width="24px" height="24px" viewBox="0 0 24 24" enable-background="new 0 0 24 24" xml:space="preserve">
<path fill="none" d="M0,0h24v24H0V0z"/>
<g>
	<rect x="11.625" y="8.069" fill="#F26322" width="2.047" height="1.364"/>
	<rect x="5.485" y="8.07" fill="#F26322" width="2.046" height="1.364"/>
	<path fill="#F26322" d="M18.294,4.302c-0.442-0.625-1.178-1.03-2-1.03L2.797,3.283c-1.35,0-2.454,1.092-2.454,2.442v12.27
		c0,1.35,1.104,2.442,2.454,2.442l13.497,0.011c0.822,0,1.558-0.404,2-1.03l5.362-7.558L18.294,4.302z M16.402,14.892
		c0,0.75-0.615,1.363-1.366,1.363H5.485l-2.73,2.73L2.762,6.705c0-0.75,0.607-1.364,1.358-1.364h10.916
		c0.751,0,1.366,0.615,1.366,1.364V14.892z"/>
	<rect x="5.485" y="12.163" fill="#F26322" width="8.188" height="1.362"/>
</g>
</svg>
