<?xml version="1.0" standalone="no"?>
<!DOCTYPE svg PUBLIC "-//W3C//DTD SVG 20010904//EN"
 "http://www.w3.org/TR/2001/REC-SVG-20010904/DTD/svg10.dtd">
<svg version="1.0" xmlns="http://www.w3.org/2000/svg"
 width="260.000000pt" height="260.000000pt" viewBox="0 0 260.000000 260.000000"
 preserveAspectRatio="xMidYMid meet">
<metadata>
Created by potrace 1.11, written by Peter Selinger 2001-2013
</metadata>
<g transform="translate(0.000000,260.000000) scale(0.100000,-0.100000)"
fill="#000000" stroke="none">
<path d="M217 2229 c-68 -23 -117 -67 -152 -134 l-30 -59 0 -720 c1 -705 1
-722 21 -766 30 -64 65 -103 126 -135 l53 -28 780 -2 c607 -1 790 1 823 11 99
29 89 16 655 818 64 90 69 100 57 120 -7 11 -90 129 -183 261 -458 645 -409
582 -479 621 l-53 29 -785 0 c-695 0 -790 -2 -833 -16z m1491 -236 c23 -15 47
-41 54 -59 10 -24 13 -146 13 -513 0 -470 -1 -481 -21 -508 -12 -15 -35 -38
-53 -50 l-33 -22 -536 -1 -537 0 -148 -148 -147 -147 2 690 3 690 22 31 c47
66 23 64 713 64 l626 0 42 -27z"/>
<path d="M591 1654 c-1 -70 0 -74 21 -75 24 -1 160 -1 190 0 15 1 17 11 15 74
l-2 72 -111 1 -112 2 -1 -74z"/>
<path d="M1259 1710 c-1 -26 -1 -84 0 -112 1 -22 4 -23 106 -22 58 0 108 3
111 7 6 5 8 73 5 129 -1 15 -15 17 -111 17 -103 0 -110 -1 -111 -19z"/>
<path d="M595 1280 c-2 -3 -3 -38 -4 -78 l-1 -72 445 0 445 1 1 22 c4 87 3
110 -3 120 -6 10 -876 18 -883 7z"/>
</g>
</svg>
